<mxfile host="app.diagrams.net" modified="2024-05-20T05:34:32.639Z" agent="Mozilla/5.0 (Windows NT 10.0; Win64; x64) AppleWebKit/537.36 (KHTML, like Gecko) Chrome/125.0.0.0 Safari/537.36" etag="3VvSoegjMpuvgDY18bt7" version="24.4.4" type="device">
  <diagram name="PÃ¡gina-1" id="72kFbLI00xK2swS_VAJU">
    <mxGraphModel dx="1803" dy="955" grid="1" gridSize="10" guides="1" tooltips="1" connect="1" arrows="1" fold="1" page="1" pageScale="1" pageWidth="1169" pageHeight="827" math="0" shadow="0">
      <root>
        <mxCell id="0" />
        <mxCell id="1" parent="0" />
        <mxCell id="xMzKlLhR0AEfsf5_in9f-70" value="" style="rounded=0;whiteSpace=wrap;html=1;" vertex="1" parent="1">
          <mxGeometry x="150" y="20" width="730" height="580" as="geometry" />
        </mxCell>
        <mxCell id="xMzKlLhR0AEfsf5_in9f-5" value="" style="edgeStyle=orthogonalEdgeStyle;rounded=0;orthogonalLoop=1;jettySize=auto;html=1;" edge="1" parent="1" source="xMzKlLhR0AEfsf5_in9f-1" target="xMzKlLhR0AEfsf5_in9f-4">
          <mxGeometry relative="1" as="geometry" />
        </mxCell>
        <mxCell id="xMzKlLhR0AEfsf5_in9f-1" value="Dataset(DIV2K)" style="rounded=0;whiteSpace=wrap;html=1;fillColor=#dae8fc;strokeColor=#6c8ebf;" vertex="1" parent="1">
          <mxGeometry x="180" y="115" width="120" height="50" as="geometry" />
        </mxCell>
        <mxCell id="xMzKlLhR0AEfsf5_in9f-7" value="" style="edgeStyle=orthogonalEdgeStyle;rounded=0;orthogonalLoop=1;jettySize=auto;html=1;" edge="1" parent="1" source="xMzKlLhR0AEfsf5_in9f-4" target="xMzKlLhR0AEfsf5_in9f-6">
          <mxGeometry relative="1" as="geometry" />
        </mxCell>
        <mxCell id="xMzKlLhR0AEfsf5_in9f-4" value="Resize(1024,1024)" style="rounded=1;whiteSpace=wrap;html=1;fillColor=#ffe6cc;strokeColor=#d79b00;" vertex="1" parent="1">
          <mxGeometry x="180" y="187" width="120" height="30" as="geometry" />
        </mxCell>
        <mxCell id="xMzKlLhR0AEfsf5_in9f-6" value="Dataset(1024x1024)" style="rounded=0;whiteSpace=wrap;html=1;fillColor=#dae8fc;strokeColor=#6c8ebf;" vertex="1" parent="1">
          <mxGeometry x="180" y="238" width="120" height="50" as="geometry" />
        </mxCell>
        <mxCell id="xMzKlLhR0AEfsf5_in9f-21" value="" style="edgeStyle=orthogonalEdgeStyle;rounded=0;orthogonalLoop=1;jettySize=auto;html=1;" edge="1" parent="1" source="xMzKlLhR0AEfsf5_in9f-9" target="xMzKlLhR0AEfsf5_in9f-20">
          <mxGeometry relative="1" as="geometry" />
        </mxCell>
        <mxCell id="xMzKlLhR0AEfsf5_in9f-9" value="Resize(512,512)" style="rounded=1;whiteSpace=wrap;html=1;fillColor=#ffe6cc;strokeColor=#d79b00;" vertex="1" parent="1">
          <mxGeometry x="270" y="428.75" width="120" height="30" as="geometry" />
        </mxCell>
        <mxCell id="xMzKlLhR0AEfsf5_in9f-23" value="" style="edgeStyle=orthogonalEdgeStyle;rounded=0;orthogonalLoop=1;jettySize=auto;html=1;" edge="1" parent="1" source="xMzKlLhR0AEfsf5_in9f-11" target="xMzKlLhR0AEfsf5_in9f-22">
          <mxGeometry relative="1" as="geometry" />
        </mxCell>
        <mxCell id="xMzKlLhR0AEfsf5_in9f-11" value="Resize(256,256)" style="rounded=1;whiteSpace=wrap;html=1;fillColor=#ffe6cc;strokeColor=#d79b00;" vertex="1" parent="1">
          <mxGeometry x="269" y="530" width="120" height="30" as="geometry" />
        </mxCell>
        <mxCell id="xMzKlLhR0AEfsf5_in9f-12" value="" style="endArrow=classic;html=1;rounded=0;exitX=0.5;exitY=1;exitDx=0;exitDy=0;entryX=0;entryY=0.5;entryDx=0;entryDy=0;" edge="1" parent="1" target="xMzKlLhR0AEfsf5_in9f-11">
          <mxGeometry width="50" height="50" relative="1" as="geometry">
            <mxPoint x="240" y="287.9999999999999" as="sourcePoint" />
            <mxPoint x="260" y="450" as="targetPoint" />
            <Array as="points">
              <mxPoint x="240" y="545" />
            </Array>
          </mxGeometry>
        </mxCell>
        <mxCell id="xMzKlLhR0AEfsf5_in9f-14" value="" style="endArrow=classic;html=1;rounded=0;entryX=0;entryY=0.5;entryDx=0;entryDy=0;" edge="1" parent="1" target="xMzKlLhR0AEfsf5_in9f-9">
          <mxGeometry width="50" height="50" relative="1" as="geometry">
            <mxPoint x="240" y="444" as="sourcePoint" />
            <mxPoint x="295" y="397.25" as="targetPoint" />
          </mxGeometry>
        </mxCell>
        <mxCell id="xMzKlLhR0AEfsf5_in9f-15" value="" style="endArrow=classic;html=1;rounded=0;" edge="1" parent="1" source="xMzKlLhR0AEfsf5_in9f-24">
          <mxGeometry width="50" height="50" relative="1" as="geometry">
            <mxPoint x="240" y="340" as="sourcePoint" />
            <mxPoint x="460" y="340" as="targetPoint" />
          </mxGeometry>
        </mxCell>
        <mxCell id="xMzKlLhR0AEfsf5_in9f-47" value="" style="edgeStyle=orthogonalEdgeStyle;rounded=0;orthogonalLoop=1;jettySize=auto;html=1;" edge="1" parent="1" source="xMzKlLhR0AEfsf5_in9f-20" target="xMzKlLhR0AEfsf5_in9f-46">
          <mxGeometry relative="1" as="geometry">
            <Array as="points">
              <mxPoint x="530" y="441.25" />
              <mxPoint x="530" y="441.25" />
            </Array>
          </mxGeometry>
        </mxCell>
        <mxCell id="xMzKlLhR0AEfsf5_in9f-20" value="Ruido Gaussiano" style="rounded=1;whiteSpace=wrap;html=1;fillColor=#ffcccc;strokeColor=#36393d;" vertex="1" parent="1">
          <mxGeometry x="410" y="427" width="100" height="33" as="geometry" />
        </mxCell>
        <mxCell id="xMzKlLhR0AEfsf5_in9f-51" value="" style="edgeStyle=orthogonalEdgeStyle;rounded=0;orthogonalLoop=1;jettySize=auto;html=1;" edge="1" parent="1" source="xMzKlLhR0AEfsf5_in9f-22" target="xMzKlLhR0AEfsf5_in9f-49">
          <mxGeometry relative="1" as="geometry">
            <Array as="points">
              <mxPoint x="530" y="550" />
              <mxPoint x="530" y="550" />
            </Array>
          </mxGeometry>
        </mxCell>
        <mxCell id="xMzKlLhR0AEfsf5_in9f-22" value="Ruido Gaussiano" style="rounded=1;whiteSpace=wrap;html=1;fillColor=#ffcccc;strokeColor=#36393d;" vertex="1" parent="1">
          <mxGeometry x="410" y="528.5" width="100" height="33" as="geometry" />
        </mxCell>
        <mxCell id="xMzKlLhR0AEfsf5_in9f-25" value="" style="endArrow=classic;html=1;rounded=0;" edge="1" parent="1" target="xMzKlLhR0AEfsf5_in9f-24">
          <mxGeometry width="50" height="50" relative="1" as="geometry">
            <mxPoint x="240" y="340" as="sourcePoint" />
            <mxPoint x="460" y="340" as="targetPoint" />
          </mxGeometry>
        </mxCell>
        <mxCell id="xMzKlLhR0AEfsf5_in9f-44" value="" style="edgeStyle=orthogonalEdgeStyle;rounded=0;orthogonalLoop=1;jettySize=auto;html=1;" edge="1" parent="1" source="xMzKlLhR0AEfsf5_in9f-24" target="xMzKlLhR0AEfsf5_in9f-43">
          <mxGeometry relative="1" as="geometry">
            <Array as="points">
              <mxPoint x="530" y="340" />
              <mxPoint x="530" y="340" />
            </Array>
          </mxGeometry>
        </mxCell>
        <mxCell id="xMzKlLhR0AEfsf5_in9f-24" value="Ruido Gaussiano" style="rounded=1;whiteSpace=wrap;html=1;fillColor=#ffcccc;strokeColor=#36393d;" vertex="1" parent="1">
          <mxGeometry x="410" y="323" width="100" height="33" as="geometry" />
        </mxCell>
        <mxCell id="xMzKlLhR0AEfsf5_in9f-34" value="" style="endArrow=classic;html=1;rounded=0;exitX=1;exitY=0.5;exitDx=0;exitDy=0;entryX=1;entryY=0.5;entryDx=0;entryDy=0;" edge="1" parent="1" source="xMzKlLhR0AEfsf5_in9f-6" target="xMzKlLhR0AEfsf5_in9f-37">
          <mxGeometry width="50" height="50" relative="1" as="geometry">
            <mxPoint x="350" y="260" as="sourcePoint" />
            <mxPoint x="800" y="500" as="targetPoint" />
            <Array as="points">
              <mxPoint x="840" y="260" />
              <mxPoint x="840" y="545" />
            </Array>
          </mxGeometry>
        </mxCell>
        <mxCell id="xMzKlLhR0AEfsf5_in9f-35" value="Dataset(&lt;b&gt;det&lt;/b&gt;(1024x1024),1024x1024)" style="rounded=0;whiteSpace=wrap;html=1;fillColor=#dae8fc;strokeColor=#6c8ebf;" vertex="1" parent="1">
          <mxGeometry x="620" y="316.25" width="200" height="50" as="geometry" />
        </mxCell>
        <mxCell id="xMzKlLhR0AEfsf5_in9f-36" value="Dataset(&lt;b&gt;det&lt;/b&gt;(512x512),1024x1024)" style="rounded=0;whiteSpace=wrap;html=1;fillColor=#dae8fc;strokeColor=#6c8ebf;" vertex="1" parent="1">
          <mxGeometry x="620" y="419.75" width="200" height="50" as="geometry" />
        </mxCell>
        <mxCell id="xMzKlLhR0AEfsf5_in9f-37" value="Dataset(&lt;b&gt;det&lt;/b&gt;(256x256),1024x1024)" style="rounded=0;whiteSpace=wrap;html=1;fillColor=#dae8fc;strokeColor=#6c8ebf;" vertex="1" parent="1">
          <mxGeometry x="620" y="520.25" width="200" height="50" as="geometry" />
        </mxCell>
        <mxCell id="xMzKlLhR0AEfsf5_in9f-63" value="" style="edgeStyle=orthogonalEdgeStyle;rounded=0;orthogonalLoop=1;jettySize=auto;html=1;" edge="1" parent="1" source="xMzKlLhR0AEfsf5_in9f-43" target="xMzKlLhR0AEfsf5_in9f-35">
          <mxGeometry relative="1" as="geometry" />
        </mxCell>
        <mxCell id="xMzKlLhR0AEfsf5_in9f-43" value="&lt;font face=&quot;Tahoma&quot; style=&quot;font-size: 19px;&quot;&gt;+&lt;/font&gt;" style="ellipse;whiteSpace=wrap;html=1;aspect=fixed;spacingBottom=2;fillColor=#bac8d3;strokeColor=#23445d;" vertex="1" parent="1">
          <mxGeometry x="530" y="326.25" width="30" height="30" as="geometry" />
        </mxCell>
        <mxCell id="xMzKlLhR0AEfsf5_in9f-64" value="" style="edgeStyle=orthogonalEdgeStyle;rounded=0;orthogonalLoop=1;jettySize=auto;html=1;" edge="1" parent="1" source="xMzKlLhR0AEfsf5_in9f-46" target="xMzKlLhR0AEfsf5_in9f-36">
          <mxGeometry relative="1" as="geometry" />
        </mxCell>
        <mxCell id="xMzKlLhR0AEfsf5_in9f-46" value="&lt;font face=&quot;Tahoma&quot; style=&quot;font-size: 19px;&quot;&gt;+&lt;/font&gt;" style="ellipse;whiteSpace=wrap;html=1;aspect=fixed;spacingBottom=2;fillColor=#bac8d3;strokeColor=#23445d;" vertex="1" parent="1">
          <mxGeometry x="530" y="429.75" width="30" height="30" as="geometry" />
        </mxCell>
        <mxCell id="xMzKlLhR0AEfsf5_in9f-65" value="" style="edgeStyle=orthogonalEdgeStyle;rounded=0;orthogonalLoop=1;jettySize=auto;html=1;" edge="1" parent="1" source="xMzKlLhR0AEfsf5_in9f-49" target="xMzKlLhR0AEfsf5_in9f-37">
          <mxGeometry relative="1" as="geometry" />
        </mxCell>
        <mxCell id="xMzKlLhR0AEfsf5_in9f-49" value="&lt;font face=&quot;Tahoma&quot; style=&quot;font-size: 19px;&quot;&gt;+&lt;/font&gt;" style="ellipse;whiteSpace=wrap;html=1;aspect=fixed;spacingBottom=2;fillColor=#bac8d3;strokeColor=#23445d;" vertex="1" parent="1">
          <mxGeometry x="530" y="530.25" width="30" height="30" as="geometry" />
        </mxCell>
        <mxCell id="xMzKlLhR0AEfsf5_in9f-54" value="" style="edgeStyle=orthogonalEdgeStyle;rounded=0;orthogonalLoop=1;jettySize=auto;html=1;entryX=0.5;entryY=0;entryDx=0;entryDy=0;" edge="1" parent="1" source="xMzKlLhR0AEfsf5_in9f-52" target="xMzKlLhR0AEfsf5_in9f-43">
          <mxGeometry relative="1" as="geometry" />
        </mxCell>
        <mxCell id="xMzKlLhR0AEfsf5_in9f-52" value="Ruido" style="rounded=1;whiteSpace=wrap;html=1;fillColor=#f5f5f5;fontColor=#333333;strokeColor=#666666;" vertex="1" parent="1">
          <mxGeometry x="495" y="270" width="100" height="33" as="geometry" />
        </mxCell>
        <mxCell id="xMzKlLhR0AEfsf5_in9f-57" value="" style="edgeStyle=orthogonalEdgeStyle;rounded=0;orthogonalLoop=1;jettySize=auto;html=1;entryX=0.5;entryY=0;entryDx=0;entryDy=0;" edge="1" parent="1" source="xMzKlLhR0AEfsf5_in9f-58">
          <mxGeometry relative="1" as="geometry">
            <mxPoint x="545" y="429.75" as="targetPoint" />
          </mxGeometry>
        </mxCell>
        <mxCell id="xMzKlLhR0AEfsf5_in9f-58" value="Ruido" style="rounded=1;whiteSpace=wrap;html=1;fillColor=#f5f5f5;fontColor=#333333;strokeColor=#666666;" vertex="1" parent="1">
          <mxGeometry x="495" y="373.75" width="100" height="33" as="geometry" />
        </mxCell>
        <mxCell id="xMzKlLhR0AEfsf5_in9f-61" value="" style="edgeStyle=orthogonalEdgeStyle;rounded=0;orthogonalLoop=1;jettySize=auto;html=1;entryX=0.5;entryY=0;entryDx=0;entryDy=0;" edge="1" parent="1" source="xMzKlLhR0AEfsf5_in9f-62">
          <mxGeometry relative="1" as="geometry">
            <mxPoint x="545" y="528.5" as="targetPoint" />
          </mxGeometry>
        </mxCell>
        <mxCell id="xMzKlLhR0AEfsf5_in9f-62" value="Ruido" style="rounded=1;whiteSpace=wrap;html=1;fillColor=#f5f5f5;fontColor=#333333;strokeColor=#666666;" vertex="1" parent="1">
          <mxGeometry x="495" y="472.5" width="100" height="33" as="geometry" />
        </mxCell>
        <mxCell id="xMzKlLhR0AEfsf5_in9f-66" value="" style="endArrow=classic;html=1;rounded=0;entryX=1;entryY=0.5;entryDx=0;entryDy=0;" edge="1" parent="1" target="xMzKlLhR0AEfsf5_in9f-36">
          <mxGeometry width="50" height="50" relative="1" as="geometry">
            <mxPoint x="840" y="445" as="sourcePoint" />
            <mxPoint x="891" y="409" as="targetPoint" />
          </mxGeometry>
        </mxCell>
        <mxCell id="xMzKlLhR0AEfsf5_in9f-67" value="" style="endArrow=classic;html=1;rounded=0;entryX=1;entryY=0.5;entryDx=0;entryDy=0;" edge="1" parent="1" target="xMzKlLhR0AEfsf5_in9f-35">
          <mxGeometry width="50" height="50" relative="1" as="geometry">
            <mxPoint x="840" y="341.14" as="sourcePoint" />
            <mxPoint x="800" y="341.14" as="targetPoint" />
          </mxGeometry>
        </mxCell>
        <mxCell id="xMzKlLhR0AEfsf5_in9f-69" value="&lt;b&gt;det*: Deteriorado&lt;/b&gt;" style="text;html=1;align=center;verticalAlign=middle;resizable=0;points=[];autosize=1;strokeColor=none;fillColor=none;" vertex="1" parent="1">
          <mxGeometry x="660" y="208" width="120" height="30" as="geometry" />
        </mxCell>
        <mxCell id="xMzKlLhR0AEfsf5_in9f-71" value="&lt;h1&gt;&lt;font style=&quot;font-size: 23px;&quot;&gt;Diagrama&amp;nbsp; de flujo de la creaciÃ³n de los Datasets&lt;/font&gt;&lt;/h1&gt;" style="text;html=1;align=center;verticalAlign=middle;resizable=0;points=[];autosize=1;strokeColor=none;fillColor=none;" vertex="1" parent="1">
          <mxGeometry x="235" y="30" width="560" height="70" as="geometry" />
        </mxCell>
      </root>
    </mxGraphModel>
  </diagram>
</mxfile>
